Coordinates
version=1
nRows=29
nColumns=22
inDegrees=yes

Units are S.I. units (second, meters, Newtons, ...)
If the header above contains a line with 'inDegrees', this indicates whether rotational values are in degrees (yes) or radians (no).

endheader
time	pelvis_tilt	pelvis_list	pelvis_rotation	pelvis_tx	pelvis_ty	pelvis_tz	hip_flexion_r	hip_adduction_r	hip_rotation_r	knee_angle_r	ankle_angle_r	subtalar_angle_r	hip_flexion_l	hip_adduction_l	hip_rotation_l	knee_angle_l	ankle_angle_l	subtalar_angle_l	lumbar_extension	lumbar_bending	lumbar_rotation
      3.85000000	     -0.88756910	     -4.69288678	    -89.17058468	      0.60073898	      1.02672744	      0.95330061	      5.26968860	     -3.25746529	     -3.19871754	    -21.65709080	      9.22141802	      5.66395635	     -3.44558856	     -0.49555554	     -4.45297396	    -11.50443344	     10.38111309	      0.26315982	     -2.94881195	     -2.26303892	     -2.64497349
      3.86000000	     -0.96499610	     -4.61704126	    -89.05986644	      0.60063126	      1.02689175	      0.95530705	      4.88948016	     -3.13366871	     -3.33003425	    -21.06921254	      9.20242965	      5.42892485	     -3.71706206	     -0.58678673	     -4.40915196	    -11.05174968	     10.32522948	      0.32397833	     -2.81839836	     -2.15380190	     -2.53364277
      3.87000000	     -1.07102932	     -4.51532966	    -88.95222665	      0.60047205	      1.02706219	      0.95719499	      4.54319866	     -2.98507901	     -3.46138108	    -20.47278111	      9.14588630	      5.31483167	     -3.95362587	     -0.71251819	     -4.37380403	    -10.59568265	     10.25522096	      0.39500614	     -2.67467442	     -2.01347688	     -2.45779902
      3.88000000	     -1.19775919	     -4.40906198	    -88.84763708	      0.60028080	      1.02725254	      0.95899681	      4.20642477	     -2.82178800	     -3.60402258	    -19.87178937	      9.07905147	      5.27729585	     -4.18153435	     -0.86357223	     -4.35067342	    -10.13444531	     10.18491808	      0.48131815	     -2.53410380	     -1.84851194	     -2.39798671
      3.89000000	     -1.34310690	     -4.28914160	    -88.74300176	      0.60005172	      1.02744194	      0.96069598	      3.88555671	     -2.64292141	     -3.75774720	    -19.25702729	      8.99449987	      5.31290608	     -4.38554210	     -1.03851170	     -4.33004780	     -9.67676527	     10.10976302	      0.57862714	     -2.39050167	     -1.66405123	     -2.36101407
      3.90000000	     -1.50245479	     -4.17357652	    -88.64207361	      0.59977298	      1.02763999	      0.96230695	      3.55762572	     -2.45032660	     -3.92598010	    -18.62423753	      8.91650315	      5.39678853	     -4.58780955	     -1.23257662	     -4.30754347	     -9.21974223	     10.02805694	      0.69592649	     -2.26356833	     -1.46780167	     -2.33688065
      3.91000000	     -1.67294423	     -4.02772724	    -88.53403201	      0.59946676	      1.02779026	      0.96382130	      3.25966797	     -2.24501314	     -4.10443095	    -17.97238932	      8.78401271	      5.49849515	     -4.73626351	     -1.44235991	     -4.27989722	     -8.78859898	      9.95776962	      0.79150278	     -2.11237695	     -1.26147923	     -2.34806687
      3.92000000	     -1.84925981	     -3.89255930	    -88.43251786	      0.59910643	      1.02793470	      0.96525598	      2.94890737	     -2.02845820	     -4.28940462	    -17.30462380	      8.66068191	      5.59339229	     -4.88458443	     -1.66147480	     -4.24521100	     -8.37050210	      9.88498619	      0.89045292	     -1.98425153	     -1.05359755	     -2.36269675
      3.93000000	     -2.02847863	     -3.75039315	    -88.33617561	      0.59869695	      1.02803571	      0.96661627	      2.64697261	     -1.80212683	     -4.47191711	    -16.62616998	      8.52158002	      5.65890022	     -5.00636327	     -1.88626017	     -4.20316782	     -7.98031493	      9.81787120	      0.97497577	     -1.85783073	     -0.84654049	     -2.37979803
      3.94000000	     -2.20766975	     -3.62179239	    -88.25220057	      0.59821238	      1.02811693	      0.96791905	      2.33139475	     -1.56582272	     -4.64686863	    -15.93715284	      8.38202993	      5.68201995	     -5.12751245	     -2.11449313	     -4.16638664	     -7.61464920	      9.76652400	      1.05290390	     -1.75608511	     -0.64888638	     -2.40273150
      3.95000000	     -2.38491406	     -3.49177412	    -88.18006320	      0.59766493	      1.02815129	      0.96915682	      2.02559764	     -1.32293091	     -4.80680635	    -15.25069370	      8.22799120	      5.66204928	     -5.22624179	     -2.34248733	     -4.12942648	     -7.28336635	      9.72877717	      1.11531672	     -1.66091315	     -0.45965857	     -2.41663970
      3.96000000	     -2.55534211	     -3.37465262	    -88.12244519	      0.59705323	      1.02815831	      0.97034048	      1.71462619	     -1.07819685	     -4.94348743	    -14.56914844	      8.07615462	      5.59191305	     -5.32109366	     -2.56501232	     -4.10195853	     -6.98269070	      9.70299435	      1.16727223	     -1.58944336	     -0.28367101	     -2.42450000
      3.97000000	     -2.71583532	     -3.26533182	    -88.08632056	      0.59634759	      1.02813298	      0.97147456	      1.40903126	     -0.83539608	     -5.05562253	    -13.90209288	      7.92431854	      5.47830115	     -5.40682870	     -2.77987053	     -4.08402609	     -6.71646377	      9.68684123	      1.20484248	     -1.53315007	     -0.12932027	     -2.42187237
      3.98000000	     -2.86313778	     -3.15320178	    -88.06783513	      0.59559031	      1.02806259	      0.97255197	      1.12385692	     -0.60277471	     -5.14013041	    -13.25644124	      7.77653064	      5.34335144	     -5.47275530	     -2.97967931	     -4.07838292	     -6.47998653	      9.67605459	      1.22723928	     -1.48080885	      0.00710756	     -2.40670354
      3.99000000	     -2.99917853	     -3.05277606	    -88.07038228	      0.59475116	      1.02797389	      0.97358063	      0.84209156	     -0.37677572	     -5.19734441	    -12.63058389	      7.62877173	      5.17609396	     -5.53366644	     -3.17052637	     -4.08674010	     -6.27878869	      9.67410219	      1.24149642	     -1.44713093	      0.12213715	     -2.37942219
      4.00000000	     -3.11744337	     -2.92491324	    -88.08934987	      0.59385489	      1.02782158	      0.97452441	      0.61239382	     -0.16910776	     -5.21418635	    -12.03575053	      7.50544909	      5.06309676	     -5.53846809	     -3.34247057	     -4.08455987	     -6.12533124	      9.65084392	      1.25359046	     -1.38923212	      0.21102969	     -2.33611869
      4.01000000	     -3.23133408	     -2.84442552	    -88.13312514	      0.59290704	      1.02770985	      0.97546301	      0.34741348	      0.03526523	     -5.24303043	    -11.46282750	      7.35567115	      4.86776983	     -5.59323245	     -3.51104792	     -4.14827234	     -5.97677143	      9.69686905	      1.26405282	     -1.38405747	      0.29571445	     -2.29006783
      4.02000000	     -3.32780941	     -2.74091709	    -88.18774814	      0.59192781	      1.02755820	      0.97631432	      0.12478338	      0.21951784	     -5.23493962	    -10.91323597	      7.23093206	      4.72240041	     -5.59529530	     -3.66094577	     -4.19854096	     -5.87657365	      9.71796870	      1.28252585	     -1.36001346	      0.35918191	     -2.23700689
      4.03000000	     -3.41366170	     -2.63063656	    -88.25092699	      0.59089661	      1.02739024	      0.97709237	     -0.06916927	      0.39120774	     -5.20876788	    -10.39637164	      7.11760201	      4.62850947	     -5.56398931	     -3.80346989	     -4.24795060	     -5.82111721	      9.73951103	      1.30080065	     -1.33177207	      0.40351137	     -2.17945829
      4.04000000	     -3.50212000	     -2.53352007	    -88.33339147	      0.58982527	      1.02723916	      0.97783682	     -0.25838165	      0.56388074	     -5.18348402	     -9.90695946	      6.99724947	      4.53108354	     -5.54117286	     -3.94878982	     -4.33202212	     -5.77600744	      9.78814388	      1.32622805	     -1.31667851	      0.45252724	     -2.11385602
      4.05000000	     -3.58129903	     -2.43626863	    -88.42669393	      0.58873122	      1.02708957	      0.97852167	     -0.42512314	      0.72286440	     -5.14386186	     -9.45349752	      6.88902176	      4.45999367	     -5.50504505	     -4.08466657	     -4.42337224	     -5.75236199	      9.83447714	      1.35666829	     -1.30416603	      0.49264507	     -2.04698834
      4.06000000	     -3.66094472	     -2.34579114	    -88.53326260	      0.58759804	      1.02695600	      0.97914454	     -0.57171756	      0.87943680	     -5.08866141	     -9.04510458	      6.78513817	      4.41308219	     -5.46519795	     -4.22259192	     -4.52604659	     -5.74547196	      9.88540070	      1.39145329	     -1.30117999	      0.53219983	     -1.97148785
      4.07000000	     -3.73933100	     -2.25957702	    -88.64843846	      0.58645040	      1.02683529	      0.97971428	     -0.69990891	      1.03186524	     -5.01341769	     -8.67414453	      6.69116669	      4.39360898	     -5.42121083	     -4.35823902	     -4.63712303	     -5.75201947	      9.93588672	      1.42705165	     -1.30445784	      0.57374436	     -1.89077003
      4.08000000	     -3.81569954	     -2.17899240	    -88.76774482	      0.58529096	      1.02672877	      0.98023187	     -0.80813769	      1.17899569	     -4.92174665	     -8.34795825	      6.61110019	      4.39996705	     -5.37473943	     -4.49183258	     -4.74816424	     -5.77130529	      9.98263887	      1.45773065	     -1.31534406	      0.61419320	     -1.80588193
      4.09000000	     -3.89134387	     -2.10593372	    -88.88853566	      0.58412513	      1.02663578	      0.98071102	     -0.90009383	      1.32347348	     -4.81442210	     -8.06544013	      6.54478134	      4.42390603	     -5.33180019	     -4.62427629	     -4.86282760	     -5.79538704	     10.02901210	      1.48326347	     -1.33386629	      0.65606586	     -1.72038121
      4.10000000	     -3.96401096	     -2.04028364	    -89.00503835	      0.58296584	      1.02655381	      0.98115285	     -0.97569144	      1.46306245	     -4.69662967	     -7.82724735	      6.49298394	      4.45821086	     -5.29148528	     -4.75312541	     -4.97316670	     -5.82431701	     10.07212350	      1.49963811	     -1.35966412	      0.69647954	     -1.63588070
      4.11000000	     -4.03266063	     -1.98094699	    -89.11463296	      0.58182580	      1.02648011	      0.98155853	     -1.03401430	      1.59646076	     -4.57427463	     -7.63235987	      6.45435413	      4.49418146	     -5.25275619	     -4.87647704	     -5.07669762	     -5.85707662	     10.11235541	      1.50314277	     -1.39143121	      0.73530032	     -1.55363710
      4.12000000	     -4.09459235	     -1.92444613	    -89.21399429	      0.58071447	      1.02640462	      0.98193152	     -1.07266778	      1.72125418	     -4.45551869	     -7.47833830	      6.42905746	      4.52200866	     -5.21112269	     -4.99104664	     -5.16886308	     -5.89434839	     10.14826742	      1.49012926	     -1.42541854	      0.77053572	     -1.47728976
      4.13000000	     -4.15196150	     -1.86753418	    -89.30576219	      0.57961528	      1.02632342	      0.98227015	     -1.08891204	      1.84030382	     -4.34247983	     -7.36253876	      6.41069834	      4.53572819	     -5.16155106	     -5.10095334	     -5.25115577	     -5.94035032	     10.18296106	      1.45788298	     -1.45613744	      0.80278598	     -1.40297795
